<svg width="640" height="640" version="1.1" xmlns="http://www.w3.org/2000/svg" desc="Created with imagetracer.js version 1.2.6" ><path fill="rgb(0,0,0)" stroke="rgb(0,0,0)" stroke-width="1" opacity="0" d="M 0 0 L 640 0 L 640 640 L 0 640 L 0 0 Z M 319 162 L 318 166 L 317 164 L 312 167 L 296 163 L 292 163 L 283 165 L 281 164 L 266 167 L 240 179 L 238 179 L 237 181 L 235 182 Q 233 185 232 183 L 231 185 L 230 184 L 221 190 L 217 194 L 218 195 L 217 194 L 214 198 L 201 209 Q 193 214 190 223 Q 186 224 189 226 Q 176 242 168 264 L 162 287 L 162 303 L 161 306 L 161 336 L 163 358 Q 169 385 183 405 L 185 406 L 190 396 L 193 395 L 192 393 L 193 391 L 193 393 L 194 393 L 193 381 L 191 377 L 192 375 L 191 371 L 195 369 L 198 371 L 201 375 L 203 372 L 196 349 L 197 346 L 197 349 L 199 350 L 201 348 L 202 351 L 202 353 L 211 357 L 212 354 L 212 352 L 213 348 L 210 334 Q 207 286 227 262 L 231 259 L 233 257 L 235 254 L 247 245 L 254 236 Q 264 225 277 219 L 276 218 L 276 217 L 278 218 L 282 217 L 285 212 L 284 212 L 285 210 Q 286 206 284 207 L 282 205 L 282 203 L 289 199 L 285 198 L 289 197 L 293 190 L 294 190 L 293 194 L 296 194 L 298 195 L 293 209 L 294 214 L 294 213 L 296 212 L 292 220 L 291 218 L 289 222 L 291 222 L 259 287 L 261 296 L 274 329 L 276 330 L 318 240 L 322 242 L 323 240 L 364 329 L 366 330 L 381 290 L 381 287 L 351 227 L 352 224 L 351 224 L 344 212 L 346 212 L 345 207 L 346 205 L 344 197 L 348 197 L 357 202 L 359 201 L 363 204 L 359 209 L 361 209 L 361 210 L 356 209 L 358 215 L 360 216 L 358 217 Q 369 220 377 227 L 389 241 L 403 251 Q 429 273 430 321 L 430 323 L 429 328 L 429 330 L 430 342 L 428 342 L 429 345 L 427 352 L 429 356 L 431 357 L 432 355 L 434 355 L 440 344 L 443 342 L 444 344 L 445 339 L 444 334 L 446 325 L 448 323 L 451 334 L 451 335 L 448 332 L 446 330 Q 446 353 437 369 L 438 374 L 441 375 L 443 369 L 444 369 L 443 372 L 445 371 L 447 375 L 447 374 L 448 374 Q 443 380 443 393 L 441 396 L 437 395 L 438 398 L 438 399 L 389 303 L 375 334 L 375 337 L 406 400 L 407 401 L 403 399 Q 366 363 342 315 L 342 313 L 330 287 L 326 284 L 321 272 L 319 270 L 315 280 L 314 281 L 314 283 L 313 282 L 302 305 L 303 307 L 301 307 L 302 309 Q 280 352 249 387 L 236 400 L 234 399 L 265 337 L 252 303 L 203 398 L 202 396 L 200 400 L 202 400 L 179 447 L 179 448 L 225 444 L 236 442 Q 283 392 317 328 L 320 327 L 322 326 Q 355 389 402 439 L 400 437 L 399 439 L 400 442 L 399 444 L 386 444 L 372 450 L 370 451 L 369 449 L 367 450 L 371 444 L 382 437 L 380 432 L 357 442 L 354 442 L 360 440 L 358 436 L 365 431 L 363 430 L 372 425 L 371 421 L 352 428 Q 341 427 335 430 L 305 430 L 304 429 L 299 430 L 298 428 L 295 429 L 270 421 L 268 425 L 273 428 L 271 429 L 280 435 L 283 437 L 283 439 L 281 440 L 286 441 L 286 442 L 261 432 L 258 437 L 263 440 L 261 441 L 264 442 L 265 444 L 268 444 L 267 446 L 269 446 L 268 448 L 273 449 L 273 450 L 254 442 L 253 444 L 252 443 L 242 446 L 237 452 L 235 453 L 237 453 L 237 454 Q 232 452 233 456 Q 253 469 281 476 L 288 475 L 305 479 L 329 479 L 330 478 L 332 479 L 354 475 L 354 477 L 380 470 Q 388 463 402 461 L 404 457 L 407 456 Q 408 453 405 454 L 405 453 L 403 450 L 404 447 L 403 446 L 401 447 L 404 445 L 405 442 L 454 448 L 462 448 L 447 419 L 448 416 L 446 416 L 447 414 L 446 414 L 442 409 L 443 406 L 441 406 L 443 402 L 442 400 L 444 398 L 443 397 L 444 395 L 445 398 L 448 399 Q 451 398 450 401 L 453 402 Q 456 401 454 406 L 457 406 Q 467 390 474 369 L 478 352 L 478 332 L 479 331 L 478 300 L 478 298 L 477 296 L 478 292 Q 476 272 469 257 L 450 223 L 444 218 L 426 199 L 425 197 L 422 193 L 415 187 L 413 187 L 412 186 L 410 185 L 409 184 L 408 184 Q 390 172 368 165 L 363 166 L 355 164 Q 339 161 333 167 L 323 165 L 323 167 L 321 164 L 319 162 Z M 428 188 L 446 206 L 446 205 L 428 188 Z M 241 437 L 237 442 L 241 439 L 241 437 Z " /><path fill="rgb(0,0,0)" stroke="rgb(0,0,0)" stroke-width="1" opacity="0" d="M 356.5 198 L 366 201.5 L 364.5 202 L 356.5 199 L 356.5 198 Z " /><path fill="rgb(0,0,0)" stroke="rgb(0,0,0)" stroke-width="1" opacity="0" d="M 194.5 301 L 196 308.5 L 195 313.5 L 194 317 Q 190.7 318.3 192 313.5 L 190 309.5 L 190 307.5 L 189 305.5 L 191 306.5 L 192 310 L 194 309.5 L 194.5 301 Z " /><path fill="rgb(0,0,0)" stroke="rgb(0,0,0)" stroke-width="1" opacity="0" d="M 208 413 L 210 414.5 L 211 417 Q 214 415.8 213 419.5 L 214.5 422 L 216 421.5 L 214 424.5 L 215.5 425 L 218.5 423 L 218.5 425 L 221.5 426 L 225.5 424 L 227 426.5 L 224 428 L 225 430.5 L 217.5 433 L 201 435 L 200.5 433 L 198 432.5 L 208 413 Z " /><path fill="rgb(0,0,0)" stroke="rgb(0,0,0)" stroke-width="1" opacity="0" d="M 427.5 413 L 433 416.5 L 437 421.5 L 440 433.5 L 436.5 435 L 432.5 434 L 430.5 434 L 427.5 433 L 425.5 433 L 421.5 431 L 420 431.5 L 419 426 L 421.5 427 L 422.5 424 L 425.5 425 L 425 423.5 L 424 421.5 L 427 422.5 L 428 417.5 L 427 415.5 L 427.5 413 Z " /><path fill="rgb(0,0,0)" stroke="rgb(0,0,0)" stroke-width="1" opacity="0" d="M 266.5 441 L 274 444.5 L 272.5 445 L 267.5 443 L 266.5 441 Z " /><path fill="rgb(0,0,0)" stroke="rgb(0,0,0)" stroke-width="1" opacity="0" d="M 296.5 442 L 296.5 444 L 306.5 446 L 308 445.5 L 304.5 448 L 304 446 L 291 443.5 L 296.5 442 Z " /><path fill="rgb(0,0,0)" stroke="rgb(0,0,0)" stroke-width="1" opacity="0" d="M 353 451 L 359 452.5 L 355.5 454 L 352 453.5 L 353 451 Z " /><path fill="rgb(255,255,255)" stroke="rgb(255,255,255)" stroke-width="1" opacity="1" d="M 319 162 L 321 163.5 L 322.5 167 L 323 165 L 332.5 167 Q 339.3 161.3 354.5 164 L 362.5 166 L 367.5 165 Q 390.5 171.5 407.5 184 L 409 183.5 L 409.5 185 L 412 185.5 L 412.5 187 L 414.5 187 L 422 192.5 L 424.5 197 L 426 198.5 L 443.5 218 L 450 222.5 L 469 256.5 Q 475.8 271.7 478 291.5 L 477 295.5 L 478 297.5 L 478 299.5 L 479 330.5 L 478 331.5 L 478 351.5 L 474 368.5 Q 467.4 389.6 457 406 L 454 406 Q 455.9 401.2 452.5 402 L 450 401 Q 451.3 398 447.5 399 L 445 398 L 443.5 395 L 443 396.5 L 443.5 398 L 442 399.5 L 443 401.5 L 442 404.5 L 445 409.5 L 443 409.5 L 444.5 412 L 446 411.5 L 445 413.5 L 447 413.5 L 449 418.5 L 448 420.5 L 462 447.5 L 453.5 448 L 405.5 443 L 405.5 444 L 407 444.5 L 405.5 445 L 403.5 445 L 402 445.5 L 404 446.5 L 403 449.5 L 405 452.5 L 404.5 454 Q 407.8 452.9 407 455.5 L 404 457 L 401.5 461 Q 388.4 463.4 379.5 470 L 354 477 L 353.5 475 L 331.5 479 L 329.5 478 L 328.5 479 L 304.5 479 L 287.5 475 L 280.5 476 Q 253 469.5 233 455.5 Q 232.1 452.5 236.5 454 L 236.5 453 L 235 452.5 L 237 452 L 241.5 446 L 251.5 443 L 253 443.5 L 253.5 442 L 258.5 444 L 260 443.5 L 259.5 445 L 267.5 448 L 268.5 446 L 267 445.5 L 267.5 444 L 265 444 L 263.5 442 L 261 440.5 L 263 439.5 L 258 437 L 260.5 432 L 282.5 441 L 282.5 440 L 281 439.5 L 283 439 L 283 437 L 279.5 435 L 271 428.5 L 273 427.5 L 268 424.5 L 269.5 421 L 294.5 429 L 298 428 L 298.5 430 L 303.5 429 L 304.5 430 L 334.5 430 Q 340.9 426.9 351.5 428 L 371 421 L 372 424.5 L 367 427.5 L 366.5 430 L 358 436 L 359.5 439 L 361 438.5 L 360.5 440 L 379.5 432 L 382 437 L 371 443.5 L 368 449 L 370 450.5 L 371.5 450 L 385.5 444 L 399 444 L 400 441.5 L 399 438.5 L 400 436.5 Q 354.1 387.9 321.5 326 L 319.5 327 L 317 327.5 Q 285.5 388 241 435.5 L 241 437.5 L 236.5 443 L 234.5 442 L 178.5 448 L 179 446.5 L 193 416.5 L 192.5 415 L 194 415.5 L 193 412.5 L 197 410.5 L 200 402.5 L 199 400.5 L 202.5 395 L 205 394.5 L 251.5 303 L 265 336.5 L 234 398.5 L 237.5 398 L 249 386.5 Q 278 354 299 313.5 L 298.5 312 L 300 312.5 L 299 310.5 L 301 310.5 L 302 308.5 L 301 306.5 L 303 306.5 L 302 304.5 L 313.5 281 L 315 279.5 L 319 270 L 321 271.5 L 326 284 L 330 286.5 L 342 312.5 L 342 314.5 Q 366.3 362.7 402.5 399 L 405 397.5 L 375 336.5 L 375 333.5 L 388.5 303 L 436.5 397 L 437 395 L 440.5 396 L 443 392.5 Q 442.8 381.8 447 375.5 L 444.5 371 L 443 371.5 L 442.5 370 L 442 372.5 L 442.5 374 L 441 373.5 L 439.5 375 L 437 368.5 Q 444 357 445 339.5 L 444 339.5 L 443.5 344 L 443 342 L 440 343.5 L 433.5 355 L 432 354.5 L 430.5 357 L 429 355.5 L 427 351.5 L 429 344.5 L 428 341.5 L 430 341.5 L 429 329.5 L 429 327.5 L 430 322.5 L 430 320.5 Q 429.5 272.5 402.5 251 L 389 240.5 L 376.5 227 Q 369.4 219.6 358 216.5 L 360 215.5 L 358 215 L 356 209 L 360 207.5 L 363 203.5 L 358.5 201 L 356.5 202 L 347.5 197 L 344 197 L 346 204.5 L 345 206.5 L 346 211.5 L 345 213.5 L 347 213.5 L 346 215.5 L 348 215.5 L 347 218.5 L 349.5 222 L 351 221.5 L 350 223.5 L 352 223.5 L 351 226.5 L 381 286.5 L 381 289.5 L 366 330 L 364 328.5 L 322.5 240 L 321.5 242 L 317.5 240 L 276 330 L 274 328.5 L 261 295.5 L 259 286.5 L 289 224.5 L 288.5 223 L 290 223.5 L 289 220.5 L 293 213.5 L 293 208.5 L 298 195 L 295.5 194 L 292 194.5 L 293 191.5 L 292 191.5 L 288.5 197 L 285 197.5 L 289 198.5 L 282 202.5 L 282 204.5 L 283.5 207 Q 286.1 206.2 285 209.5 L 285 211.5 L 281.5 217 Q 264.8 223.3 254 235.5 L 246.5 245 L 235 253.5 L 232.5 257 L 231 258.5 L 227 261.5 Q 207.1 286.1 210 333.5 L 213 347.5 L 212 351.5 L 212 353.5 L 211 357 L 202 352.5 L 202 350.5 L 200.5 348 L 199 349.5 L 197 349.5 L 198.5 356 L 199.5 354 L 200 355.5 L 199 358.5 L 201 358.5 L 200 362.5 L 203 371.5 L 200.5 375 L 197.5 371 L 194.5 369 L 191 370.5 L 192 374.5 L 191 376.5 L 193 380.5 L 194 392.5 L 192.5 395 L 190 395.5 L 184.5 406 L 183 404.5 Q 169 385 163 357.5 L 161 335.5 L 161 305.5 L 162 302.5 L 162 286.5 L 168 263.5 Q 176 242 189 225.5 Q 186.5 224 190 222.5 Q 193.3 213.8 200.5 209 L 214 197.5 L 220.5 190 L 229.5 184 L 231 184.5 L 232.5 182 L 234.5 182 L 236 181.5 L 235.5 180 L 237 180.5 L 237.5 179 L 239.5 179 L 265.5 167 L 280.5 164 L 282.5 165 L 291.5 163 L 295.5 163 L 311.5 167 L 317.5 163 L 319 163.5 L 319 162 Z M 195 301 L 194 310 L 192 309 L 190 310 L 192 314 Q 191 318 194 317 L 195 314 L 196 309 L 195 301 Z M 446 323 L 444 331 L 446 339 L 446 330 L 448 332 L 450 333 Q 451 327 448 326 Q 449 322 446 323 Z M 208 413 L 198 433 L 201 433 L 201 435 L 225 431 L 224 430 L 226 428 L 225 427 L 227 427 L 226 424 L 222 426 L 218 424 L 215 425 L 215 424 L 213 420 Q 214 416 211 417 L 210 415 L 208 413 Z M 429 414 L 427 416 L 428 418 L 427 423 L 426 422 L 425 424 L 426 425 L 423 424 L 422 427 L 419 426 L 420 432 L 422 431 L 426 433 L 428 433 L 431 434 L 433 434 L 437 435 L 440 434 L 437 422 L 433 417 L 429 414 Z M 292 443 L 292 444 L 302 446 L 304 446 L 292 443 Z M 353 451 L 353 453 L 353 454 Q 357 455 358 452 L 353 451 Z " /><path fill="rgb(255,255,255)" stroke="rgb(255,255,255)" stroke-width="1" opacity="1" d="M 426.5 187 L 446 204.5 L 448 207.5 L 440.5 201 L 426.5 187 Z " /><path fill="rgb(255,255,255)" stroke="rgb(255,255,255)" stroke-width="1" opacity="1" d="M 194.5 202 L 190 207.5 L 187.5 211 L 189 208.5 L 194.5 202 Z " /></svg>